<mxfile host="app.diagrams.net" modified="2023-08-27T01:27:54.670Z" agent="Mozilla/5.0 (Macintosh; Intel Mac OS X 10_15_7) AppleWebKit/537.36 (KHTML, like Gecko) Chrome/115.0.0.0 Safari/537.36" etag="a8JowBLrbv9XS133PFWu" version="21.6.8" type="device">
  <diagram name="第 1 页" id="i-1P9DtDswBRlAeLQziq">
    <mxGraphModel dx="1434" dy="790" grid="1" gridSize="10" guides="1" tooltips="1" connect="1" arrows="1" fold="1" page="1" pageScale="1" pageWidth="827" pageHeight="1169" math="0" shadow="0">
      <root>
        <mxCell id="0" />
        <mxCell id="1" parent="0" />
        <mxCell id="L4DM2Ag0KivXykGE_fMy-38" value="Varvara" style="verticalAlign=top;align=center;spacingTop=8;spacingLeft=2;spacingRight=12;shape=cube;size=10;direction=south;fontStyle=4;html=1;whiteSpace=wrap;fillColor=#f0a30a;strokeColor=#BD7000;fontColor=#000000;" vertex="1" parent="1">
          <mxGeometry x="450" width="260" height="380" as="geometry" />
        </mxCell>
        <mxCell id="L4DM2Ag0KivXykGE_fMy-5" value="Uxn" style="verticalAlign=top;align=center;spacingTop=8;spacingLeft=2;spacingRight=12;shape=cube;size=10;direction=south;fontStyle=4;html=1;whiteSpace=wrap;fillColor=#dae8fc;strokeColor=#6c8ebf;" vertex="1" parent="1">
          <mxGeometry x="467.5" y="40" width="220" height="330" as="geometry" />
        </mxCell>
        <mxCell id="L4DM2Ag0KivXykGE_fMy-6" value="System Device" style="verticalAlign=top;align=center;spacingTop=8;spacingLeft=2;spacingRight=12;shape=cube;size=10;direction=south;fontStyle=4;html=1;whiteSpace=wrap;fillColor=#d5e8d4;strokeColor=#82b366;" vertex="1" parent="1">
          <mxGeometry x="270" y="40" width="110" height="50" as="geometry" />
        </mxCell>
        <mxCell id="L4DM2Ag0KivXykGE_fMy-7" value="Console Device" style="verticalAlign=top;align=center;spacingTop=8;spacingLeft=2;spacingRight=12;shape=cube;size=10;direction=south;fontStyle=4;html=1;whiteSpace=wrap;fillColor=#d5e8d4;strokeColor=#82b366;" vertex="1" parent="1">
          <mxGeometry x="270" y="140" width="110" height="50" as="geometry" />
        </mxCell>
        <mxCell id="L4DM2Ag0KivXykGE_fMy-8" value="Mouse Device" style="verticalAlign=top;align=center;spacingTop=8;spacingLeft=2;spacingRight=12;shape=cube;size=10;direction=south;fontStyle=4;html=1;whiteSpace=wrap;fillColor=#d5e8d4;strokeColor=#82b366;" vertex="1" parent="1">
          <mxGeometry x="270" y="230" width="110" height="50" as="geometry" />
        </mxCell>
        <mxCell id="L4DM2Ag0KivXykGE_fMy-9" value="File Device" style="verticalAlign=top;align=center;spacingTop=8;spacingLeft=2;spacingRight=12;shape=cube;size=10;direction=south;fontStyle=4;html=1;whiteSpace=wrap;fillColor=#d5e8d4;strokeColor=#82b366;" vertex="1" parent="1">
          <mxGeometry x="270" y="320" width="110" height="50" as="geometry" />
        </mxCell>
        <mxCell id="L4DM2Ag0KivXykGE_fMy-11" value="Screen Device" style="verticalAlign=top;align=center;spacingTop=8;spacingLeft=2;spacingRight=12;shape=cube;size=10;direction=south;fontStyle=4;html=1;whiteSpace=wrap;fillColor=#d5e8d4;strokeColor=#82b366;" vertex="1" parent="1">
          <mxGeometry x="780" y="40" width="110" height="50" as="geometry" />
        </mxCell>
        <mxCell id="L4DM2Ag0KivXykGE_fMy-12" value="Audio Device" style="verticalAlign=top;align=center;spacingTop=8;spacingLeft=2;spacingRight=12;shape=cube;size=10;direction=south;fontStyle=4;html=1;whiteSpace=wrap;fillColor=#d5e8d4;strokeColor=#82b366;" vertex="1" parent="1">
          <mxGeometry x="780" y="140" width="110" height="50" as="geometry" />
        </mxCell>
        <mxCell id="L4DM2Ag0KivXykGE_fMy-13" value="Controller Device" style="verticalAlign=top;align=center;spacingTop=8;spacingLeft=2;spacingRight=12;shape=cube;size=10;direction=south;fontStyle=4;html=1;whiteSpace=wrap;fillColor=#d5e8d4;strokeColor=#82b366;" vertex="1" parent="1">
          <mxGeometry x="780" y="230" width="110" height="50" as="geometry" />
        </mxCell>
        <mxCell id="L4DM2Ag0KivXykGE_fMy-14" value="Datetime Device" style="verticalAlign=top;align=center;spacingTop=8;spacingLeft=2;spacingRight=12;shape=cube;size=10;direction=south;fontStyle=4;html=1;whiteSpace=wrap;fillColor=#d5e8d4;strokeColor=#82b366;" vertex="1" parent="1">
          <mxGeometry x="780" y="320" width="110" height="50" as="geometry" />
        </mxCell>
        <mxCell id="L4DM2Ag0KivXykGE_fMy-15" value="Main Components:&lt;br&gt;&lt;b&gt;Memory&lt;/b&gt;" style="html=1;dropTarget=0;whiteSpace=wrap;fillColor=#f8cecc;strokeColor=#b85450;" vertex="1" parent="1">
          <mxGeometry x="490" y="80" width="170" height="50" as="geometry" />
        </mxCell>
        <mxCell id="L4DM2Ag0KivXykGE_fMy-16" value="" style="shape=module;jettyWidth=8;jettyHeight=4;" vertex="1" parent="L4DM2Ag0KivXykGE_fMy-15">
          <mxGeometry x="1" width="20" height="20" relative="1" as="geometry">
            <mxPoint x="-27" y="7" as="offset" />
          </mxGeometry>
        </mxCell>
        <mxCell id="L4DM2Ag0KivXykGE_fMy-25" value="" style="group" vertex="1" connectable="0" parent="1">
          <mxGeometry x="490" y="220" width="170" height="140" as="geometry" />
        </mxCell>
        <mxCell id="L4DM2Ag0KivXykGE_fMy-17" value="Main Components&lt;span style=&quot;background-color: initial;&quot;&gt;:&lt;br&gt;&lt;/span&gt;&lt;span style=&quot;font-weight: bold; background-color: initial;&quot;&gt;Stacks&lt;/span&gt;&lt;span style=&quot;background-color: initial;&quot;&gt;&lt;br&gt;&lt;/span&gt;" style="html=1;dropTarget=0;whiteSpace=wrap;fillColor=#f8cecc;strokeColor=#b85450;align=center;horizontal=1;verticalAlign=top;movable=1;resizable=1;rotatable=1;deletable=1;editable=1;locked=0;connectable=1;" vertex="1" parent="L4DM2Ag0KivXykGE_fMy-25">
          <mxGeometry width="170" height="140" as="geometry" />
        </mxCell>
        <mxCell id="L4DM2Ag0KivXykGE_fMy-18" value="" style="shape=module;jettyWidth=8;jettyHeight=4;movable=0;resizable=0;rotatable=0;deletable=0;editable=0;locked=1;connectable=0;" vertex="1" parent="L4DM2Ag0KivXykGE_fMy-17">
          <mxGeometry x="1" width="20" height="20" relative="1" as="geometry">
            <mxPoint x="-27" y="7" as="offset" />
          </mxGeometry>
        </mxCell>
        <mxCell id="L4DM2Ag0KivXykGE_fMy-21" value="Sub-components&lt;br&gt;&lt;b&gt;Working Stack&lt;/b&gt;" style="html=1;dropTarget=0;whiteSpace=wrap;fillColor=#f5f5f5;strokeColor=#666666;fontColor=#333333;movable=1;resizable=1;rotatable=1;deletable=1;editable=1;locked=0;connectable=1;" vertex="1" parent="L4DM2Ag0KivXykGE_fMy-25">
          <mxGeometry x="15" y="40" width="145" height="35" as="geometry" />
        </mxCell>
        <mxCell id="L4DM2Ag0KivXykGE_fMy-22" value="" style="shape=module;jettyWidth=8;jettyHeight=4;movable=0;resizable=0;rotatable=0;deletable=0;editable=0;locked=1;connectable=0;" vertex="1" parent="L4DM2Ag0KivXykGE_fMy-21">
          <mxGeometry x="1" width="20" height="20" relative="1" as="geometry">
            <mxPoint x="-27" y="7" as="offset" />
          </mxGeometry>
        </mxCell>
        <mxCell id="L4DM2Ag0KivXykGE_fMy-23" value="Sub-components&lt;br&gt;&lt;b&gt;Return Stack&lt;/b&gt;" style="html=1;dropTarget=0;whiteSpace=wrap;fillColor=#f5f5f5;fontColor=#333333;strokeColor=#666666;movable=1;resizable=1;rotatable=1;deletable=1;editable=1;locked=0;connectable=1;" vertex="1" parent="L4DM2Ag0KivXykGE_fMy-25">
          <mxGeometry x="15" y="85" width="145" height="35" as="geometry" />
        </mxCell>
        <mxCell id="L4DM2Ag0KivXykGE_fMy-24" value="" style="shape=module;jettyWidth=8;jettyHeight=4;movable=0;resizable=0;rotatable=0;deletable=0;editable=0;locked=1;connectable=0;" vertex="1" parent="L4DM2Ag0KivXykGE_fMy-23">
          <mxGeometry x="1" width="20" height="20" relative="1" as="geometry">
            <mxPoint x="-27" y="7" as="offset" />
          </mxGeometry>
        </mxCell>
        <mxCell id="L4DM2Ag0KivXykGE_fMy-28" style="edgeStyle=orthogonalEdgeStyle;rounded=0;orthogonalLoop=1;jettySize=auto;html=1;entryX=0;entryY=0;entryDx=20;entryDy=0;entryPerimeter=0;" edge="1" parent="1" source="L4DM2Ag0KivXykGE_fMy-26" target="L4DM2Ag0KivXykGE_fMy-6">
          <mxGeometry relative="1" as="geometry" />
        </mxCell>
        <mxCell id="L4DM2Ag0KivXykGE_fMy-29" style="edgeStyle=orthogonalEdgeStyle;rounded=0;orthogonalLoop=1;jettySize=auto;html=1;entryX=0;entryY=0;entryDx=20;entryDy=0;entryPerimeter=0;" edge="1" parent="1" source="L4DM2Ag0KivXykGE_fMy-26" target="L4DM2Ag0KivXykGE_fMy-7">
          <mxGeometry relative="1" as="geometry" />
        </mxCell>
        <mxCell id="L4DM2Ag0KivXykGE_fMy-30" style="edgeStyle=orthogonalEdgeStyle;rounded=0;orthogonalLoop=1;jettySize=auto;html=1;entryX=0;entryY=0;entryDx=20;entryDy=0;entryPerimeter=0;" edge="1" parent="1" source="L4DM2Ag0KivXykGE_fMy-26" target="L4DM2Ag0KivXykGE_fMy-8">
          <mxGeometry relative="1" as="geometry" />
        </mxCell>
        <mxCell id="L4DM2Ag0KivXykGE_fMy-31" style="edgeStyle=orthogonalEdgeStyle;rounded=0;orthogonalLoop=1;jettySize=auto;html=1;entryX=0;entryY=0;entryDx=20;entryDy=0;entryPerimeter=0;" edge="1" parent="1" source="L4DM2Ag0KivXykGE_fMy-26" target="L4DM2Ag0KivXykGE_fMy-9">
          <mxGeometry relative="1" as="geometry" />
        </mxCell>
        <mxCell id="L4DM2Ag0KivXykGE_fMy-32" style="edgeStyle=orthogonalEdgeStyle;rounded=0;orthogonalLoop=1;jettySize=auto;html=1;exitX=1;exitY=0.5;exitDx=0;exitDy=0;entryX=0;entryY=0;entryDx=30;entryDy=110;entryPerimeter=0;" edge="1" parent="1" source="L4DM2Ag0KivXykGE_fMy-26" target="L4DM2Ag0KivXykGE_fMy-11">
          <mxGeometry relative="1" as="geometry" />
        </mxCell>
        <mxCell id="L4DM2Ag0KivXykGE_fMy-33" style="edgeStyle=orthogonalEdgeStyle;rounded=0;orthogonalLoop=1;jettySize=auto;html=1;entryX=0;entryY=0;entryDx=30;entryDy=110;entryPerimeter=0;" edge="1" parent="1" source="L4DM2Ag0KivXykGE_fMy-26" target="L4DM2Ag0KivXykGE_fMy-12">
          <mxGeometry relative="1" as="geometry" />
        </mxCell>
        <mxCell id="L4DM2Ag0KivXykGE_fMy-36" style="edgeStyle=orthogonalEdgeStyle;rounded=0;orthogonalLoop=1;jettySize=auto;html=1;entryX=0;entryY=0;entryDx=30;entryDy=110;entryPerimeter=0;" edge="1" parent="1" source="L4DM2Ag0KivXykGE_fMy-26" target="L4DM2Ag0KivXykGE_fMy-13">
          <mxGeometry relative="1" as="geometry" />
        </mxCell>
        <mxCell id="L4DM2Ag0KivXykGE_fMy-37" style="edgeStyle=orthogonalEdgeStyle;rounded=0;orthogonalLoop=1;jettySize=auto;html=1;entryX=0;entryY=0;entryDx=30;entryDy=110;entryPerimeter=0;" edge="1" parent="1" source="L4DM2Ag0KivXykGE_fMy-26" target="L4DM2Ag0KivXykGE_fMy-14">
          <mxGeometry relative="1" as="geometry" />
        </mxCell>
        <mxCell id="L4DM2Ag0KivXykGE_fMy-26" value="Main Components:&lt;br&gt;&lt;b&gt;I/O&lt;/b&gt;" style="html=1;dropTarget=0;whiteSpace=wrap;fillColor=#f8cecc;strokeColor=#b85450;" vertex="1" parent="1">
          <mxGeometry x="490" y="150" width="170" height="50" as="geometry" />
        </mxCell>
        <mxCell id="L4DM2Ag0KivXykGE_fMy-27" value="" style="shape=module;jettyWidth=8;jettyHeight=4;" vertex="1" parent="L4DM2Ag0KivXykGE_fMy-26">
          <mxGeometry x="1" width="20" height="20" relative="1" as="geometry">
            <mxPoint x="-27" y="7" as="offset" />
          </mxGeometry>
        </mxCell>
      </root>
    </mxGraphModel>
  </diagram>
</mxfile>
